# xmcd
#
# Track frame offsets:
#	150
#	13162
#	34124
#	49761
#	63298
#	78710
#	93147
#	115909
#	130721
#	147933
#	165670
#	181832
#	198819
#	215806
#	232043
#	247455
#	262642
#	287054
#	303366
#
# Disc length: 4273 seconds
#
# Revision: 1
# Processed by: cddbd v1.5.2PL0 Copyright (c) Steve Scherf et al.
# Submitted via: audiograbber 1.83.01
#
DISCID=0d10af13
DTITLE=Promo Only - Country Radio January 2008
DYEAR=2008
DGENRE=Country
TTITLE0=Toby Keith - Get My Drink On
TTITLE1=Alan Jackson - Small Town Southern Man
TTITLE2=Faith Hill - Red Umbrella
TTITLE3=Big and Rich - Loud
TTITLE4=Terri Clark - In My Next Life
TTITLE5=Whiskey Falls - Falling Into You
TTITLE6=Reba McEntire and Justin Timberlake - The Only Promise That Remains
TTITLE7=The Road Hammers - I Don't Know When To Quit
TTITLE8=Brooks and Dunn - God Must Be Busy
TTITLE9=Phil Vassar - Love Is A Beautiful Thing
TTITLE10=Rio Grand - The Storm Inside Of Me
TTITLE11=Josh Gracin - We Weren't Crazy
TTITLE12=Lila McCann - That's What Angels Do
TTITLE13=Stephen Cochran - Everything We Knew
TTITLE14=Ansel Brown - Mine's Bigger
TTITLE15=The Bridge - Get Back Up
TTITLE16=Chute Nine - 80 Acres
TTITLE17=Blue Rodeo - 3 Hours Away
TTITLE18=Star De Azlan - She's Pretty
EXTD=
EXTT0=
EXTT1=
EXTT2=
EXTT3=
EXTT4=
EXTT5=
EXTT6=
EXTT7=
EXTT8=
EXTT9=
EXTT10=
EXTT11=
EXTT12=
EXTT13=
EXTT14=
EXTT15=
EXTT16=
EXTT17=
EXTT18=
PLAYORDER=
